<svg id="SvgjsSvg1001" width="30" height="30" xmlns="http://www.w3.org/2000/svg" version="1.1" xmlns:xlink="http://www.w3.org/1999/xlink" xmlns:svgjs="http://svgjs.com/svgjs"><defs id="SvgjsDefs1002"></defs><g id="SvgjsG1008"><svg xmlns="http://www.w3.org/2000/svg" width="30" height="30" fill="none" viewBox="0 0 30 30"><g clip-path="url(#clip0)" fill="#000000" class="color000 svgShape"><path fill="#e31369" d="M0 28.0034H29.9581V30.0006H0V28.0034zM2.99581 25.0085C3.5792 25.0104 4.15036 24.8414 4.63873 24.5223 5.12709 24.2033 5.51127 23.7482 5.74379 23.2133 5.97632 22.6784 6.04701 22.0872 5.94712 21.5126 5.84724 20.9379 5.58116 20.4052 5.18175 19.9801L10.2936 11.9418C10.9557 12.1116 11.6568 12.0365 12.2678 11.7301L16.2772 15.7393C16.0818 16.1388 15.9794 16.5774 15.9777 17.0221 15.9777 17.8164 16.2933 18.5782 16.8551 19.1398 17.4169 19.7015 18.1789 20.017 18.9735 20.017 19.768 20.017 20.53 19.7015 21.0918 19.1398 21.6536 18.5782 21.9693 17.8164 21.9693 17.0221 21.9674 16.3248 21.7199 15.6504 21.2702 15.1174L26.463 5.99092C27.1652 6.11325 27.8881 5.98322 28.5036 5.62386 29.1191 5.2645 29.5876 4.699 29.8261 4.02747 30.0645 3.35595 30.0576 2.62173 29.8065 1.95482 29.5554 1.2879 29.0764.731327 28.4542.383633 27.832.0359393 27.1068-.0804396 26.407.0551029 25.7072.190645 25.078.569365 24.6307 1.1242 24.1834 1.67904 23.947 2.37421 23.9632 3.0866 23.9795 3.799 24.2473 4.48268 24.7194 5.01658L19.5507 14.0861C19.3606 14.048 19.1673 14.0282 18.9735 14.0272 18.5286 14.0289 18.0899 14.1313 17.6903 14.3267L13.6809 10.3185C13.8763 9.91902 13.9787 9.48046 13.9804 9.03573 13.9804 8.24143 13.6648 7.47967 13.103 6.91802 12.5412 6.35637 11.7792 6.04083 10.9846 6.04083 10.1901 6.04083 9.4281 6.35637 8.86628 6.91802 8.30445 7.47967 7.98883 8.24143 7.98883 9.03573 7.99125 9.69467 8.21333 10.334 8.61994 10.8526L3.40024 19.0596C3.26652 19.0369 3.13139 19.0232 2.99581 19.0187 2.20127 19.0187 1.43928 19.3342.877452 19.8959.315629 20.4576 0 21.2193 0 22.0136 0 22.8079.315629 23.5697.877452 24.1313 1.43928 24.693 2.20127 25.0085 2.99581 25.0085zM18.9735 18.0204C18.776 18.0204 18.5829 17.9619 18.4187 17.8522 18.2544 17.7425 18.1265 17.5866 18.0509 17.4042 17.9753 17.2217 17.9555 17.021 17.994 16.8274 18.0326 16.6337 18.1277 16.4558 18.2673 16.3162 18.407 16.1766 18.5849 16.0815 18.7786 16.043 18.9724 16.0045 19.1731 16.0243 19.3556 16.0998 19.5381 16.1754 19.694 16.3033 19.8038 16.4675 19.9135 16.6317 19.9721 16.8247 19.9721 17.0221 19.9721 17.2869 19.8669 17.5408 19.6796 17.728 19.4923 17.9152 19.2383 18.0204 18.9735 18.0204zM26.9623 2.04764C27.1598 2.04764 27.3529 2.10619 27.5171 2.21588 27.6813 2.32558 27.8093 2.48149 27.8849 2.6639 27.9605 2.84632 27.9802 3.04704 27.9417 3.2407 27.9032 3.43435 27.8081 3.61223 27.6684 3.75184 27.530 3.89145 27.3508 3.98653 27.1571 4.02505 26.9634 4.06357 26.7626 4.0438 26.5801 3.96824 26.3977 3.89269 26.2417 3.76473 26.132 3.60056 26.0223 3.43639 25.9637 3.24338 25.9637 3.04594 25.9637 2.78117 26.0689 2.52725 26.2562 2.34003 26.4434 2.15282 26.6974 2.04764 26.9623 2.04764zM10.9846 8.03743C11.1821 8.03743 11.3752 8.09598 11.5394 8.20567 11.7037 8.31537 11.8316 8.47128 11.9072 8.6537 11.9828 8.83611 12.0026 9.03684 11.9641 9.23049 11.9255 9.42414 11.8304 9.60202 11.6908 9.74163 11.5511 9.88125 11.3732 9.97633 11.1795 10.0148 10.9857 10.0534 10.785 10.0336 10.6025 9.95804 10.42 9.88248 10.2641 9.75452 10.1543 9.59035 10.0446 9.42618 9.98603 9.23317 9.98603 9.03573 9.98603 8.77096 10.0912 8.51704 10.2785 8.32982 10.4658 8.14261 10.7198 8.03743 10.9846 8.03743zM2.99581 21.0153C3.19332 21.0153 3.38638 21.0739 3.5506 21.1836 3.71482 21.2933 3.84282 21.4492 3.9184 21.6316 3.99398 21.814 4.01376 22.0147 3.97523 22.2084 3.93669 22.402 3.84159 22.5799 3.70193 22.7195 3.56227 22.8591 3.38434 22.9542 3.19063 22.9927 2.99692 23.0312 2.79613 23.0115 2.61366 22.9359 2.43119 22.8604 2.27523 22.7324 2.1655 22.5682 2.05577 22.4041 1.99721 22.2111 1.99721 22.0136 1.99721 21.7488 2.10242 21.4949 2.28969 21.3077 2.47696 21.1205 2.73096 21.0153 2.99581 21.0153z" class="color6C33EF svgShape"></path></g><defs><clipPath id="clip0"><rect width="30" height="30" fill="#ffffff" class="colorfff svgShape"></rect></clipPath></defs></svg></g></svg>